<?xml version="1.0" encoding="utf-8"?>
<!-- Generator: Adobe Illustrator 21.0.2, SVG Export Plug-In . SVG Version: 6.00 Build 0)  -->
<svg version="1.1" id="Capa_1" xmlns="http://www.w3.org/2000/svg" xmlns:xlink="http://www.w3.org/1999/xlink" x="0px" y="0px"
	 viewBox="0 0 25.4 34.2" style="enable-background:new 0 0 25.4 34.2;" xml:space="preserve">
<style type="text/css">
	.st0{fill:#094FA4;}
	.st1{fill:#F4F4F4;}
	.st2{fill:#F9F9F9;}
	.st3{fill:#F6891E;}
	.st4{fill:#333333;}
	.st5{fill:#1A1A1A;}
	.st6{fill:#009EE5;}
	.st7{opacity:0.7;fill:#333333;}
</style>
<path class="st6" d="M19.6,21.3c-1.7,0-2.7-0.8-3.3-1.8l1.5-0.9c0.4,0.7,1.2,1.1,1.9,1.1c0.6,0,1.1-0.2,1.1-0.6
	c0-0.5-0.6-0.6-1.3-0.8c-1.2-0.3-2.8-0.6-2.8-2.3c0-1.5,1.1-2.3,2.8-2.3c1.6,0,2.5,0.7,3.1,1.4l-1.3,1.1c-0.4-0.5-1.1-0.9-1.8-0.9
	c-0.6,0-0.9,0.2-0.9,0.5c0,0.5,0.6,0.7,1.3,0.8c1.2,0.3,2.8,0.7,2.8,2.3C22.7,20.1,21.9,21.3,19.6,21.3 M15.9,21.1h-5.1v-7.3h1.9
	v5.7h3.2V21.1z M7.5,21.1l-1.3-2.3L5,21.1H2.9l2.3-3.9l-2.1-3.5h2.3l1.1,1.9l1-1.9h2l-2.1,3.5l2.3,3.8H7.5z M17,0.5h-4.9H1.2
	c-0.5,0-1,0.4-1,0.9v31.5c0,0.5,0.5,0.9,1,0.9h23.2c0.5,0,0.8-0.4,0.8-0.9V8.8L17,0.5z"/>
</svg>
