<?xml version="1.0" encoding="utf-8"?>
<!-- Generator: Adobe Illustrator 21.0.2, SVG Export Plug-In . SVG Version: 6.00 Build 0)  -->
<svg version="1.1" id="Capa_1" xmlns="http://www.w3.org/2000/svg" xmlns:xlink="http://www.w3.org/1999/xlink" x="0px" y="0px"
	 viewBox="0 0 25.4 34.2" style="enable-background:new 0 0 25.4 34.2;" xml:space="preserve">
<style type="text/css">
	.st0{fill:#094FA4;}
	.st1{fill:#F4F4F4;}
	.st2{fill:#F9F9F9;}
	.st3{fill:#F6891E;}
	.st4{fill:#333333;}
	.st5{fill:#1A1A1A;}
	.st6{fill:#009EE5;}
	.st7{opacity:0.7;fill:#333333;}
	.st8{fill:#2F509F;}
	.st9{fill:#3E6EBC;}
	.st10{fill:#589CE1;}
	.st11{fill:#7CBAE9;}
	.st12{fill:#9FCFF0;}
	.st13{fill:#C2E3F7;}
</style>
<path class="st6" d="M17,0.5h-4.8H1.2c-0.5,0-1,0.4-1,0.9v31.5c0,0.5,0.5,0.9,1,0.9h23.2c0.5,0,0.8-0.4,0.8-0.9V8.8L17,0.5z M7,21.1
	l-1.4-2.3l-1.4,2.3H2l2.4-3.7l-2.2-3.5h2.1l1.3,2.2l1.2-2.2h2.2l-2.3,3.7l2.4,3.5H7z M17.7,21.1h-1.8v-3.2c0-0.2,0-0.3,0-0.5
	c0-0.2,0-0.7,0.1-1.5h0l-1.4,5.2h-1.8l-1.5-5.2h0c0.1,0.9,0.1,1.6,0.1,2.1v3.1H9.5v-7.2h2.6l1.5,5.1h0l1.5-5.1h2.6V21.1z M23.4,21.1
	h-4.7v-7.2h1.9v5.6h2.8V21.1z"/>
</svg>
