<?xml version="1.0" encoding="utf-8"?>
<!-- Generator: Adobe Illustrator 21.0.2, SVG Export Plug-In . SVG Version: 6.00 Build 0)  -->
<svg version="1.1" id="Capa_1" xmlns="http://www.w3.org/2000/svg" xmlns:xlink="http://www.w3.org/1999/xlink" x="0px" y="0px"
	 viewBox="0 0 25.4 34.2" style="enable-background:new 0 0 25.4 34.2;" xml:space="preserve">
<style type="text/css">
	.st0{fill:#094FA4;}
	.st1{fill:#F4F4F4;}
	.st2{fill:#F9F9F9;}
	.st3{fill:#F6891E;}
	.st4{fill:#333333;}
	.st5{fill:#1A1A1A;}
	.st6{fill:#009EE5;}
	.st7{opacity:0.7;fill:#333333;}
</style>
<g>
	<path class="st6" d="M5.8,15.5H5v1.9h0.9c0.9,0,1.2-0.4,1.2-1C7,15.9,6.8,15.5,5.8,15.5"/>
	<path class="st6" d="M22.4,15.6h-3.1V17h2.1v1.7h-2.1v2.6h-2.1v-7.4h5.1V15.6z M12.3,21.3H9.8v-7.4h2.5c2.2,0,4.1,0.8,4.1,3.6
		C16.3,20.5,14.4,21.3,12.3,21.3 M5.8,18.9H5v2.4H3v-7.4h2.8c1.6,0,3.2,0.3,3.2,2.5C9,18.6,7.2,18.9,5.8,18.9 M16.9,0.5H12H1.1
		c-0.5,0-0.9,0.4-0.9,0.9v31.6c0,0.5,0.4,0.9,0.9,0.9h23.2c0.5,0,0.9-0.4,0.9-0.9V8.8L16.9,0.5z"/>
	<path class="st6" d="M12.4,15.6h-0.5v4h0.5c1.5,0,2-0.6,2-2.1C14.3,16.2,13.9,15.6,12.4,15.6"/>
</g>
</svg>
