<?xml version="1.0" encoding="utf-8"?>
<!-- Generator: Adobe Illustrator 21.0.2, SVG Export Plug-In . SVG Version: 6.00 Build 0)  -->
<svg version="1.1" id="Capa_1" xmlns="http://www.w3.org/2000/svg" xmlns:xlink="http://www.w3.org/1999/xlink" x="0px" y="0px"
	 viewBox="0 0 233 75.3" style="enable-background:new 0 0 233 75.3;" xml:space="preserve">
<style type="text/css">
	.st0{fill:#094FA4;}
	.st1{fill:#F4F4F4;}
	.st2{fill:#F9F9F9;}
	.st3{fill:#F6891E;}
	.st4{fill:#333333;}
	.st5{fill:#1A1A1A;}
	.st6{fill:#009EE5;}
	.st7{opacity:0.7;fill:#333333;}
	.st8{fill:#2F509F;}
	.st9{fill:#3E6EBC;}
	.st10{fill:#589CE1;}
	.st11{fill:#7CBAE9;}
	.st12{fill:#9FCFF0;}
	.st13{fill:#C2E3F7;}
</style>
<g>
	<g id="XMLID_229_">
		<g id="XMLID_230_">
			<rect id="XMLID_237_" class="st8" width="10.8" height="10.8"/>
			<rect id="XMLID_236_" y="10.8" class="st9" width="10.8" height="10.8"/>
			<rect id="XMLID_235_" y="21.5" class="st10" width="10.8" height="10.8"/>
			<rect id="XMLID_234_" y="32.3" class="st11" width="10.8" height="10.8"/>
			<rect id="XMLID_233_" y="43" class="st12" width="10.8" height="10.8"/>
			<rect id="XMLID_232_" y="53.8" class="st13" width="10.8" height="10.8"/>
			<rect id="XMLID_231_" y="64.5" class="st13" width="10.8" height="10.8"/>
		</g>
	</g>
	<g id="XMLID_200_">
		<path id="XMLID_225_" class="st8" d="M104.3,43V22v-0.4h6.2c1.1,0,2.1,0.1,2.9,0.3c0.9,0.2,1.7,0.6,2.3,1.2
			c0.4,0.4,0.8,0.8,1.1,1.4c0.4,0.7,0.5,1.6,0.5,2.6c0,1.1-0.2,2-0.7,2.7c-0.4,0.7-1,1.2-1.7,1.6c-0.1,0.1-0.3,0.2-0.5,0.2
			c0.4,0.1,0.7,0.2,1,0.4c0.6,0.3,1.2,0.7,1.7,1.3c0.3,0.4,0.6,0.8,0.8,1.3c0.3,0.6,0.4,1.4,0.4,2.3c0,1.2-0.2,2.2-0.7,3
			c-0.5,0.8-1.1,1.5-2,2c-0.5,0.3-1.2,0.6-1.8,0.7c-0.9,0.2-1.9,0.3-2.9,0.3H104.3z M110.9,41c0.9,0,1.6-0.1,2.3-0.3
			c0.7-0.2,1.3-0.5,1.7-0.9c0.3-0.3,0.5-0.6,0.7-1c0.2-0.5,0.4-1.1,0.4-1.8c0-0.8-0.2-1.5-0.5-2c-0.3-0.5-0.7-1-1.3-1.3
			c-0.4-0.2-0.8-0.4-1.3-0.5c-0.7-0.2-1.5-0.2-2.3-0.2h-4V41H110.9z M110.4,30.8c0.8,0,1.5-0.1,2.1-0.2c0.6-0.2,1.2-0.4,1.6-0.8
			c0.3-0.2,0.5-0.5,0.7-0.9c0.2-0.5,0.4-1,0.4-1.7c0-0.8-0.2-1.4-0.4-1.9c-0.3-0.5-0.7-0.8-1.2-1.1c-0.3-0.2-0.7-0.3-1.1-0.4
			c-0.6-0.1-1.2-0.2-1.8-0.2h-3.9v7.1H110.4z"/>
		<path id="XMLID_222_" class="st8" d="M132.5,29.3c-0.2-0.5-0.5-0.9-0.8-1.2c-0.5-0.5-1.1-0.8-1.9-1c-0.7-0.2-1.6-0.3-2.5-0.3
			c-3.1,0-4.8,0.9-5.9,1.5c0.8,1.7,1.7,1.3,2.8,0.8c0.9-0.4,1.9-0.5,2.9-0.5c0.5,0,1,0.1,1.5,0.2c0.3,0.1,0.6,0.2,0.8,0.3
			c0.4,0.2,0.6,0.5,0.8,0.9c0.2,0.4,0.3,0.9,0.3,1.5v2.3c-1.2-0.3-2.3-0.4-3.6-0.4c-0.9,0-1.8,0.1-2.6,0.3c-0.6,0.1-1.1,0.3-1.6,0.6
			c-0.7,0.4-1.3,0.9-1.7,1.6c-0.4,0.7-0.6,1.5-0.6,2.4c0,0.8,0.1,1.5,0.4,2.1c0.4,0.9,1.1,1.6,1.9,2.1c0.9,0.5,1.9,0.7,3,0.7h0
			c1.3,0,2.3-0.2,3.2-0.7c0.6-0.3,1.1-0.7,1.6-1.1c0,0.2,0,0.4,0.1,0.5c0,0.2,0.1,0.3,0.1,0.5c0.1,0.1,0.1,0.2,0.2,0.3
			c0.1,0.1,0.3,0.2,0.5,0.2c0.2,0,0.4,0.1,0.6,0.1h0.8V31.5C132.9,30.7,132.8,29.9,132.5,29.3 M130.7,39c-0.6,0.6-1.2,1.2-1.9,1.6
			c-0.7,0.4-1.6,0.7-2.8,0.7c-0.5,0-0.9-0.1-1.3-0.2c-0.3-0.1-0.6-0.2-0.8-0.4c-0.3-0.2-0.6-0.5-0.8-0.9c-0.2-0.4-0.3-0.9-0.3-1.6
			c0-0.5,0.1-1,0.3-1.3c0.2-0.3,0.4-0.5,0.6-0.7c0.4-0.3,0.9-0.5,1.5-0.7c0.6-0.2,1.2-0.2,2-0.2c1.3,0,2.5,0.2,3.6,0.4V39z"/>
		<path id="XMLID_221_" class="st8" d="M147.2,43V31.4c0-0.7-0.1-1.1-0.3-1.5c-0.2-0.4-0.4-0.6-0.7-0.8c-0.2-0.1-0.4-0.2-0.6-0.3
			c-0.3-0.1-0.7-0.1-1.1-0.1c-1.1,0-2.1,0.3-3.1,0.8c-0.9,0.4-1.9,1-2.7,1.6V43h-2.2V27h1.1c0.1,0,0.2,0,0.3,0c0.1,0,0.2,0,0.3,0.1
			c0.1,0,0.1,0.1,0.2,0.2c0.1,0.1,0.1,0.2,0.2,0.3c0,0.1,0.1,0.3,0.1,0.5c0,0.2,0,0.5,0,0.9V29c0.7-0.5,1.6-1,2.5-1.4
			c1.2-0.5,2.5-0.8,3.9-0.8c0.6,0,1.2,0.1,1.8,0.2c0.6,0.2,1.1,0.5,1.5,1c0.3,0.3,0.5,0.7,0.7,1.1c0.2,0.6,0.3,1.3,0.3,2.1V43H147.2
			z"/>
		<path id="XMLID_218_" class="st8" d="M169.5,41.9c-1.2-0.8-2.1-2-2.6-3.5c-0.4-1-0.5-2.1-0.5-3.4c0-1.8,0.4-3.5,1.2-4.8
			c0.8-1.3,1.9-2.3,3.3-2.9c0.9-0.4,1.9-0.5,3-0.5c1.7,0,3.2,0.4,4.3,1.3c1.2,0.8,2.1,2,2.6,3.5c0.3,1,0.5,2.1,0.5,3.4
			c0,1.9-0.4,3.5-1.2,4.8c-0.8,1.3-1.9,2.3-3.2,2.8c-0.9,0.4-2,0.6-3.1,0.6C172.2,43.2,170.7,42.7,169.5,41.9 M170.7,29.6
			c-0.8,0.6-1.4,1.5-1.8,2.7c-0.2,0.8-0.4,1.7-0.4,2.7c0,1.5,0.3,2.8,0.8,3.8c0.5,1,1.3,1.7,2.2,2.1c0.6,0.3,1.4,0.4,2.2,0.4
			c1.2,0,2.3-0.3,3.1-0.9c0.8-0.6,1.4-1.5,1.8-2.6c0.2-0.8,0.4-1.7,0.4-2.7c0-1.5-0.3-2.8-0.8-3.7c-0.5-1-1.3-1.7-2.2-2.1
			c-0.6-0.3-1.4-0.4-2.2-0.4C172.6,28.7,171.5,29,170.7,29.6"/>
		<path id="XMLID_217_" class="st8" d="M203.7,43V31.3c0-0.6-0.1-1.1-0.2-1.4c-0.1-0.3-0.3-0.6-0.6-0.7c-0.2-0.1-0.4-0.2-0.6-0.3
			c-0.3-0.1-0.7-0.1-1.1-0.1c-1,0-1.9,0.3-2.8,0.7c-0.8,0.4-1.6,1-2.3,1.6v12h-2.2V31.3c0-0.6-0.1-1.1-0.2-1.4
			c-0.1-0.3-0.3-0.6-0.6-0.7c-0.2-0.1-0.4-0.2-0.6-0.3c-0.3-0.1-0.6-0.1-1-0.1c-1.1,0-2,0.3-2.9,0.7c-0.8,0.4-1.6,1-2.3,1.6v12H184
			V27h1c0.1,0,0.2,0,0.3,0c0.1,0,0.2,0,0.3,0.1c0.1,0,0.1,0.1,0.2,0.2c0.1,0.1,0.1,0.2,0.2,0.3c0,0.1,0.1,0.3,0.1,0.5
			c0,0.2,0,0.5,0,0.8v0c0.6-0.4,1.3-0.9,2.1-1.3c1.1-0.5,2.3-0.8,3.6-0.8c0.7,0,1.3,0.1,1.9,0.3c0.6,0.2,1.1,0.6,1.5,1.2
			c0.2,0.2,0.3,0.5,0.4,0.8c0.7-0.6,1.5-1.1,2.4-1.5c1.1-0.5,2.3-0.8,3.6-0.8c0.6,0,1.2,0.1,1.8,0.3c0.5,0.2,1,0.5,1.4,0.9
			c0.3,0.3,0.5,0.6,0.6,1c0.2,0.5,0.3,1.1,0.3,1.9V43H203.7z"/>
		<path id="XMLID_214_" class="st8" d="M83.1,35.3l2.9-9.7l3,9.7H83.1z M90.7,23.8c-0.6-1.8-0.9-2.2-2.6-2.2H84L77.5,43h3.3l1.4-4.6
			H90l1.4,4.6h5.8L90.7,23.8z"/>
		<path id="XMLID_211_" class="st8" d="M51.4,40.2V24.5h2.7c1.3,0,2.5,1.1,2.5,2.4c0,0.5-0.1,0.9-0.5,1.5l-1.8,2.7
			c1.9,0.4,3.1,1.9,3.1,4.5c0,3.2-1.9,4.6-4.5,4.6H51.4z M58.3,30l1-1.5c2.2-3.3,0.7-6.8-3.7-6.8h-9.3V43h9
			C63.3,43,65.6,33.8,58.3,30"/>
		<path id="XMLID_208_" class="st8" d="M34.9,40.2h-1.5V24.5h2.7c1.3,0,2.5,1.1,2.5,2.4c0,0.5-0.1,0.9-0.5,1.5l-1.8,2.7
			c1.9,0.4,3.1,1.9,3.1,4.5C39.3,38.8,37.4,40.2,34.9,40.2 M40.3,30l1-1.5c2.2-3.3,0.7-6.8-3.7-6.8h-9.3V43h9
			C45.2,43,47.6,33.8,40.3,30"/>
		<path id="XMLID_207_" class="st8" d="M67.7,24.5c-0.8-2.4-1.1-2.8-2.6-2.8h-3.8l7,21.3h5.1L80,21.7h-3.4l-4.8,16.2L67.7,24.5z"/>
		<path id="XMLID_205_" class="st8" d="M164.7,28.5c-0.8,1.7-1.6,1.2-2.7,0.7c-0.6-0.3-1.4-0.4-2.4-0.4c-1.2,0-2.3,0.3-3.1,0.9
			c-0.8,0.6-1.5,1.5-1.9,2.6c-0.3,0.8-0.4,1.7-0.4,2.7c0,1.1,0.2,2.2,0.5,3c0.3,0.8,0.8,1.5,1.3,2c0.4,0.3,0.8,0.6,1.3,0.8
			c0.7,0.3,1.4,0.4,2.3,0.4c1.1,0,2-0.3,2.7-0.6c1.1-0.6,1.8-1.2,2.8,0.5c-0.4,0.4-1.1,0.9-1.8,1.2c-0.1,0.1-0.2,0.1-0.3,0.1
			c-0.9,0.4-2,0.6-3.4,0.6h0c-1.7,0-3.2-0.4-4.4-1.3c-1.2-0.8-2.1-2-2.6-3.6c-0.3-1-0.5-2.1-0.5-3.4c0-1.9,0.4-3.5,1.2-4.8
			c0.8-1.3,1.9-2.2,3.3-2.8c0.9-0.4,2-0.5,3.1-0.5C160.2,26.8,162.5,26.6,164.7,28.5"/>
		<path id="XMLID_202_" class="st8" d="M221.7,31c-0.2-0.7-0.5-1.3-0.9-1.9c-0.6-0.8-1.3-1.4-2.2-1.8c-0.9-0.4-1.9-0.5-3-0.5
			c-1,0-2,0.2-2.9,0.6c-1.3,0.6-2.4,1.6-3.1,2.9c-0.7,1.3-1.2,2.9-1.2,4.8c0,1.2,0.2,2.3,0.5,3.3c0.5,1.5,1.3,2.7,2.5,3.5
			c1.2,0.8,2.7,1.3,4.5,1.3h0c1.4,0,2.6-0.2,3.5-0.6c1.5-0.6,2.3-1.3,2.7-1.7c-1-1.5-1.6-0.9-2.8-0.3c-0.7,0.3-2,0.6-3.2,0.6
			c-0.9,0-1.7-0.1-2.4-0.4c-0.5-0.2-0.9-0.5-1.3-0.8c-0.6-0.5-1-1.1-1.3-2c-0.3-0.7-0.4-1.6-0.4-2.6h11.5v-0.4V35c0-0.1,0-0.4,0-0.6
			C222.2,33.1,222,32,221.7,31 M210.7,33.6c0.1-0.7,0.3-1.4,0.5-2c0.4-1,1-1.7,1.7-2.2c0.7-0.5,1.6-0.7,2.6-0.7
			c0.7,0,1.3,0.1,1.8,0.3c0.4,0.1,0.7,0.3,1.1,0.6c0.5,0.4,0.8,0.9,1.1,1.6c0.2,0.6,0.4,1.4,0.4,2.4H210.7z"/>
		<path id="XMLID_201_" class="st8" d="M231.6,26.9c-1.2,0-2.2,0.4-3.1,0.9c-0.6,0.4-1.1,0.8-1.6,1.2c0-0.4,0-0.7,0-0.9
			c0-0.2,0-0.3-0.1-0.5c0-0.1-0.1-0.2-0.2-0.3c-0.1-0.1-0.1-0.1-0.2-0.2c-0.1-0.1-0.2-0.1-0.3-0.1c-0.1,0-0.2,0-0.3,0h-1.1v16h2.2
			V31.5c0.8-0.9,1.5-1.5,2-1.8c0,0,0,0,0,0c0.9-0.6,1.6-0.7,2.2-0.8c1-0.1,1.7-0.2,1.8-1.8C232.6,27,232.1,26.9,231.6,26.9"/>
	</g>
	<g id="XMLID_199_">
		<g>
			<path class="st8" d="M29.3,63.4v-0.4h0.3c0.8,0.7,1.9,1.3,4.1,1.3c2.3,0,4-1,4-3.6c0-2.4-2-2.8-4.2-3.4c-2-0.6-3.9-1.1-3.9-3.6
				c0-1.8,1.3-3.4,4-3.4c1.8,0,2.8,0.5,3.8,1.2V52h-0.3c-0.8-0.7-1.7-1.2-3.5-1.2c-2.6,0-3.7,1.4-3.7,3c0,2.3,1.7,2.7,3.6,3.3
				c2.3,0.6,4.5,1.2,4.5,3.8c0,2.8-1.9,3.9-4.4,3.9C31.4,64.7,30.3,64.1,29.3,63.4z"/>
			<path class="st8" d="M33.7,65.2c-2.4,0-3.7-0.7-4.7-1.4c-0.1-0.1-0.2-0.2-0.2-0.4v-0.4c0-0.3,0.2-0.5,0.5-0.5h0.3
				c0.1,0,0.2,0,0.3,0.1c0.7,0.6,1.7,1.2,3.8,1.2c2.3,0,3.5-1,3.5-3.1c0-1.8-1.3-2.2-3.5-2.9l-0.4-0.1c-2-0.6-4.2-1.2-4.2-4.1
				c0-1.8,1.2-3.9,4.5-3.9c1.9,0,3,0.5,4.1,1.3c0.1,0.1,0.2,0.2,0.2,0.4V52c0,0.3-0.2,0.5-0.5,0.5h-0.3c-0.1,0-0.2,0-0.3-0.1
				c-0.6-0.6-1.4-1.1-3.2-1.1c-2,0-3.2,0.9-3.2,2.5c0,1.8,1.1,2.2,3.2,2.8l0.2,0.1c2.3,0.7,4.7,1.3,4.7,4.2
				C38.6,63.6,36.8,65.2,33.7,65.2z"/>
		</g>
		<g>
			<path class="st8" d="M44.7,64.4c1.8,0,2.9-0.6,3.4-1.1h0.3v0.3c-0.7,0.6-1.9,1.2-3.7,1.2c-3.1,0-4.8-2-4.8-5.3
				c0-3.3,1.9-5.4,4.5-5.4c2.4,0,4.2,1.4,4.2,4.8c0,0.1,0,0.3,0,0.3h-8.3v0.3C40.3,62.5,41.8,64.4,44.7,64.4z M40.3,58.8h7.9
				c0-3.2-1.6-4.5-3.8-4.5C42.1,54.3,40.5,56,40.3,58.8z"/>
			<path class="st8" d="M44.7,65.2c-3.3,0-5.3-2.2-5.3-5.8c0-3.5,2.1-5.9,5-5.9c3,0,4.7,1.9,4.7,5.3c0,0.2,0,0.3,0,0.3
				c0,0.2-0.2,0.4-0.5,0.4h-7.8c0,2,0.8,4.3,3.9,4.3c2,0,2.8-0.7,3.1-1c0.1-0.1,0.2-0.2,0.4-0.2h0.3c0.3,0,0.5,0.2,0.5,0.5v0.3
				c0,0.1-0.1,0.3-0.2,0.4C48,64.5,46.8,65.2,44.7,65.2z M40.8,58.3h6.9c-0.2-2.3-1.3-3.5-3.3-3.5C42.5,54.8,41.2,56.1,40.8,58.3z"
				/>
		</g>
		<g>
			<path class="st8" d="M58.9,64.7c0,2.4-2.2,3.3-4.1,3.3c-1.8,0-3.2-0.5-3.9-1v-0.4H51c0.6,0.5,2,1,3.7,1c1.8,0,3.8-0.7,3.8-3v-2.3
				c-0.9,1.3-2.3,2.3-4.3,2.3c-1.9,0-4.1-1.2-4.1-5.3c0-4.2,2.4-5.5,4.5-5.5c1.8,0,3,0.7,3.8,1.6v-1c0-0.4,0.1-0.5,0.3-0.5h0.1V64.7
				z M58.5,61.9v-5.8c-1-1.2-2.1-1.8-3.8-1.8c-1.9,0-4.1,1-4.1,5.1c0,4,2,5,3.7,5C56.2,64.4,57.5,63.4,58.5,61.9z"/>
			<path class="st8" d="M54.7,68.5c-2.3,0-3.8-0.8-4.2-1c-0.1-0.1-0.2-0.3-0.2-0.4v-0.4c0-0.3,0.2-0.5,0.5-0.5H51
				c0.1,0,0.2,0,0.3,0.1c0.5,0.4,1.6,0.9,3.3,0.9c1,0,3.3-0.2,3.3-2.5v-1c-1,0.9-2.3,1.5-3.8,1.5c-1.1,0-4.6-0.4-4.6-5.8
				c0-5.5,3.8-6,5-6c1.3,0,2.4,0.3,3.3,1c0-0.3,0.1-0.9,0.8-0.9h0.1c0.3,0,0.5,0.2,0.5,0.5v10.6C59.4,67.5,56.9,68.5,54.7,68.5z
				 M54.7,54.8c-1.7,0-3.6,0.8-3.6,4.6c0,3.7,1.7,4.5,3.2,4.5c1.5,0,2.7-0.7,3.7-2.1v-5.5C57.1,55.3,56.1,54.8,54.7,54.8z"/>
		</g>
		<g>
			<path class="st8" d="M69.5,62.7c-1.3,1.1-3,2.1-4.8,2.1c-1.5,0-2.7-0.5-2.7-2.6v-8.1h0.4v8c0,1.9,1,2.3,2.3,2.3
				c1.7,0,3.4-1,4.7-2.1v-8.2h0.4v10.5h-0.1c-0.2,0-0.3-0.1-0.3-0.5V62.7z"/>
			<path class="st8" d="M64.7,65.3c-2.1,0-3.2-1-3.2-3.1v-8.1c0-0.3,0.2-0.5,0.5-0.5h0.4c0.3,0,0.5,0.2,0.5,0.5v8
				c0,1.5,0.6,1.8,1.8,1.8c1.3,0,2.8-0.7,4.2-1.8v-8c0-0.3,0.2-0.5,0.5-0.5h0.4c0.3,0,0.5,0.2,0.5,0.5v10.5c0,0.3-0.2,0.5-0.5,0.5
				h-0.1c-0.5,0-0.8-0.3-0.8-1v-0.5C68,64.5,66.4,65.3,64.7,65.3z M70,64.4L70,64.4L70,64.4z"/>
		</g>
		<g>
			<path class="st8" d="M73.6,56.3c0.9-1.2,2-2.3,3.6-2.3c0.3,0,0.4,0,0.4,0v0.3c0,0-0.2,0-0.4,0c-1.5,0-2.7,1.1-3.6,2.4v7.9h-0.4
				V54.1h0.1c0.2,0,0.3,0.1,0.3,0.5V56.3z"/>
			<path class="st8" d="M73.6,65.2h-0.4c-0.3,0-0.5-0.2-0.5-0.5V54.1c0-0.3,0.2-0.5,0.5-0.5h0.1c0.8,0,0.8,0.7,0.8,1V55
				c1-1,2-1.4,3.1-1.4c0.3,0,0.5,0,0.6,0.1c0.2,0.1,0.4,0.3,0.4,0.5v0.3c0,0.1-0.1,0.3-0.2,0.4c-0.1,0.1-0.2,0.1-0.4,0.1
				c0,0-0.2,0-0.4,0c-1.1,0-2.1,0.7-3.1,2.1v7.7C74.1,64.9,73.8,65.2,73.6,65.2z"/>
		</g>
		<g>
			<path class="st8" d="M78.4,59.4c0-3.3,1.8-5.4,4.7-5.4c2.9,0,4.7,2,4.7,5.4c0,3.3-1.8,5.4-4.7,5.4C80.2,64.7,78.4,62.7,78.4,59.4
				z M87.5,59.4c0-3.1-1.6-5-4.4-5c-2.7,0-4.4,1.9-4.4,5c0,3.1,1.6,5,4.4,5C85.9,64.4,87.5,62.5,87.5,59.4z"/>
			<path class="st8" d="M83.1,65.2c-3.2,0-5.2-2.3-5.2-5.9c0-3.6,2.1-5.9,5.2-5.9c3.2,0,5.2,2.3,5.2,5.9
				C88.4,63,86.4,65.2,83.1,65.2z M83.1,54.8c-2.4,0-3.9,1.7-3.9,4.5c0,2.9,1.4,4.5,3.9,4.5s3.9-1.7,3.9-4.5S85.6,54.8,83.1,54.8z"
				/>
		</g>
		<g>
			<path class="st8" d="M89.3,63.7v-0.3h0.3c0.5,0.5,1.4,1.1,3.1,1.1c2.2,0,3.2-0.9,3.2-2.7c0-1.5-1.1-2-3.1-2.4
				c-1.9-0.3-3.2-0.8-3.2-2.6c0-1.7,1.2-2.7,3.3-2.7c1.4,0,2.5,0.5,3,0.9v0.3h-0.3c-0.6-0.5-1.4-0.9-2.7-0.9c-2,0-3,0.9-3,2.4
				c0,1.5,1.1,2,3,2.3c2.1,0.4,3.4,1,3.4,2.7c0,2-1.1,3-3.6,3C90.8,64.7,89.8,64.1,89.3,63.7z"/>
			<path class="st8" d="M92.7,65.2c-1.5,0-2.8-0.4-3.7-1.2c-0.1-0.1-0.2-0.2-0.2-0.4v-0.3c0-0.3,0.2-0.5,0.5-0.5h0.3
				c0.1,0,0.3,0.1,0.4,0.1c0.6,0.6,1.5,0.9,2.8,0.9c2.4,0,2.7-1.1,2.7-2.2c0-0.9-0.4-1.5-2.7-1.9C90.8,59.5,89,59,89,56.7
				c0-2,1.5-3.2,3.8-3.2c1.6,0,2.8,0.6,3.3,1c0.1,0.1,0.2,0.2,0.2,0.4v0.3c0,0.3-0.2,0.5-0.5,0.5h-0.3c-0.1,0-0.2,0-0.3-0.1
				c-0.4-0.4-1-0.8-2.4-0.8c-1.1,0-2.5,0.3-2.5,1.9c0,1.1,0.6,1.5,2.6,1.8c2,0.3,3.8,1,3.8,3.2C96.8,63.3,96.1,65.2,92.7,65.2z"/>
		</g>
	</g>
</g>
</svg>
